<?xml version="1.0" encoding="utf-8"?>
<!-- Generator: Adobe Illustrator 25.1.0, SVG Export Plug-In . SVG Version: 6.00 Build 0)  -->
<svg version="1.1" id="Camada_1" xmlns="http://www.w3.org/2000/svg" xmlns:xlink="http://www.w3.org/1999/xlink" x="0px" y="0px"
	 viewBox="0 0 386.3 120.9" style="enable-background:new 0 0 386.3 120.9;" xml:space="preserve">
<style type="text/css">
	.st0{fill:#FFFFFF;}
	.st1{fill:#FFFFFF;stroke:#FFFFFF;stroke-width:3;stroke-miterlimit:10;}
</style>
<g>
	<path class="st0" d="M59.3,120.9L59.3,120.9V86.6c0-23.9,19.4-43.4,43.4-43.4l0,0v34.3C102.7,101.4,83.2,120.9,59.3,120.9z"/>
	<path class="st0" d="M48.3,98V48.3C48.3,21.6,26.7,0,0,0l0,0v49.7C0,76.4,21.6,98,48.3,98L48.3,98z"/>
	<ellipse class="st0" cx="75.7" cy="20.7" rx="16.4" ry="16.4"/>
</g>
<g>
	<path class="st1" d="M182.4,87h-7.2l-27-40.7V87h-6.9V37.1h9.2l24.9,38.3V37.1h6.9V87H182.4z"/>
	<path class="st1" d="M218.1,82.5v-0.6c-0.9,1.7-2.2,3.2-4,4.3s-4,1.7-6.4,1.7c-4.8,0-8.7-1.7-11.7-5.1c-2.9-3.4-4.4-7.7-4.4-12.8
		c0-4.9,1.5-9.1,4.5-12.6s6.9-5.2,11.5-5.2c2.8,0,5,0.6,6.8,1.7c1.7,1.1,2.9,2.5,3.6,4V36.1h6.5v44.7c0,2.3,0.1,4.4,0.4,6.3h-6.4
		C218.2,85.7,218.1,84.2,218.1,82.5z M198.3,70c0,3.6,0.9,6.5,2.6,8.7c1.8,2.3,4.2,3.4,7.3,3.4c3,0,5.3-1.1,7.1-3.5
		c1.8-2.3,2.7-5.2,2.7-8.8c0-3.5-0.9-6.4-2.6-8.5c-1.7-2.2-4.1-3.2-7.1-3.2s-5.4,1.1-7.3,3.3C199.2,63.6,198.3,66.5,198.3,70z"/>
	<path class="st1" d="M237.8,57.2c3.3-3.4,7.4-5.1,12.4-5.1s9.2,1.7,12.4,5.1c3.3,3.4,4.9,7.7,4.9,12.8c0,5.2-1.6,9.5-4.9,12.9
		c-3.2,3.4-7.4,5.1-12.5,5.1s-9.2-1.7-12.5-5.1c-3.2-3.4-4.9-7.7-4.9-12.9C232.9,64.9,234.6,60.6,237.8,57.2z M242.8,79
		c2,2.1,4.5,3.2,7.5,3.2s5.5-1.1,7.5-3.2c2-2.1,3.1-5.1,3.1-8.9s-1-6.7-3.1-8.8c-2-2.1-4.5-3.2-7.5-3.2s-5.5,1.1-7.5,3.2
		c-2,2.1-3.1,5.1-3.1,8.8C239.7,73.9,240.7,76.9,242.8,79z"/>
	<path class="st1" d="M282.6,87H276V53.2h6.3v4.5c1-1.8,2.5-3.1,4.4-4.1c1.9-0.9,3.8-1.4,5.9-1.4c2.2,0,4.2,0.5,6.1,1.6
		c1.8,1.1,3.2,2.7,4.1,4.8c2.3-4.3,6.1-6.4,11.3-6.4c3.2,0,6,1.1,8.3,3.3s3.4,5.4,3.4,9.6v22h-6.5V65.8c0-2.3-0.6-4.2-1.8-5.6
		s-3-2.1-5.4-2.1c-2.3,0-4.2,0.8-5.6,2.4s-2.2,3.7-2.2,6.1V87h-6.6V65.8c0-2.3-0.6-4.2-1.8-5.6c-1.2-1.4-3-2.1-5.4-2.1
		c-2.3,0-4.2,0.8-5.7,2.4c-1.5,1.6-2.2,3.7-2.2,6.2L282.6,87L282.6,87z"/>
	<path class="st1" d="M338.4,57.2c3.3-3.4,7.4-5.1,12.4-5.1s9.2,1.7,12.4,5.1c3.3,3.4,4.9,7.7,4.9,12.8c0,5.2-1.6,9.5-4.9,12.9
		c-3.2,3.4-7.4,5.1-12.5,5.1s-9.2-1.7-12.5-5.1c-3.2-3.4-4.9-7.7-4.9-12.9C333.5,64.9,335.2,60.6,338.4,57.2z M343.4,79
		c2,2.1,4.5,3.2,7.5,3.2s5.5-1.1,7.5-3.2s3.1-5.1,3.1-8.9s-1-6.7-3.1-8.8c-2-2.1-4.5-3.2-7.5-3.2s-5.5,1.1-7.5,3.2
		c-2,2.1-3.1,5.1-3.1,8.8C340.3,73.9,341.3,76.9,343.4,79z"/>
</g>
</svg>
